<svg width="3508.53" height="1104.21" viewBox="0 0 928.298 292.155" xmlns="http://www.w3.org/2000/svg" xmlns:xlink="http://www.w3.org/1999/xlink" id="svg8" overflow="hidden"><defs id="defs2"><linearGradient id="linearGradient958"><stop offset="0" stop-color="#3E98D3"/><stop offset="1" stop-color="#192777"/></linearGradient><radialGradient cx="194.004" cy="-278.335" r="171.622" fx="194.004" fy="-278.335" gradientUnits="userSpaceOnUse" xlink:href="#linearGradient958" id="radialGradient960" gradientTransform="matrix(1.15469 0.000204392 -5.46707e-05 0.308617 -23.8921 -62.3511)"></radialGradient></defs><g id="layer1" transform="translate(641.844 252.053)"><path d="M-188.149 39.9005C-232.397 38.2896-277.852 27.4988-324.323 7.57392-343.234-0.534833-363.236-10.5796-383.589-22.1896-397.013-29.8468-427.741-48.654-429.452-50.2598-430.528-51.27-430.95-52.2177-430.95-53.6277-430.95-56.2373-429.074-58.1017-426.453-58.0975-425.094-58.0955-424.766-57.9521-421.557-55.9632-408.679-47.9813-390.866-38.94-373.51-31.5756-292.676 2.72294-196.911 14.7669-104.983 2.19574-42.2024-6.38953 18.1421-26.4777 65.2147-54.4614 72.0061-58.4988 72.6327-58.711 74.6671-57.6627 77.4778-56.2144 78.0874-52.6689 75.8986-50.5 75.0379-49.6471 73.981-48.9704 58.5296-39.3771 17.3208-13.792-15.9498 3.09969-50.591 16.0239-97.185 33.4075-143.878 41.5122-188.149 39.9005Z" id="path846" stroke-width="0.264583" fill="#E30613"/><g id="g3160" fill="#193D8D" transform="matrix(0.779742 0 0 -0.779742 -447.993 -507.322)"><g id="g4290" transform="matrix(3.46843 0 0 3.46843 -408.462 -31.8598)"><path d="M46.088-86.8714C46.088-86.8714 46.4101-87.8854 46.7218-90.767 47.0953-97.9455 47.1152-103.896 47.1583-110.53 47.2443-115.654 47.1941-120.646 47.1496-125.453 47.1198-128.709 47.0973-130.483 47.0973-133.443 47.0973-142.251 46.3986-148.424 46.3986-148.424 46.3986-148.424 52.9105-149.826 62.7397-149.826 72.5722-149.826 83.0047-146.423 89.0245-141.318 95.0429-136.214 100.459-128.906 100.459-115.796 100.459-102.686 94.8421-95.4791 87.4195-90.7759 79.9948-86.0705 68.6592-85.1712 59.9309-85.5708 51.2048-85.9721 46.3899-86.8714 46.0879-86.8714ZM387.959-136.214 374.828-133.112C371.382-136.513 367.66-138.203 362.879-138.115 353.036-137.935 348.145-132.147 346.326-122.601L388.658-122.601C389.259-119.199 389.457-115.595 389.258-112.193 388.856-105.32 386.74-98.9945 382.437-93.5779 378.177-88.2154 370.848-85.403 361.787-85.4703 353.279-85.5347 346.325-88.4438 340.82-94.279 335.647-99.7609 332.55-108.121 332.694-118.998 332.832-129.332 335.468-137.026 341.923-143.32 346.417-147.702 352.458-150.042 360.382-150.025 375.48-149.57 381.754-144.715 387.959-136.214ZM377.21-111.994 346.823-111.994C347.36-104.152 354.555-96.8493 362.179-96.8854 370.069-96.9216 376.846-102.553 377.21-111.994ZM243.961-97.3354C254.01-97.3354 262.159-106.412 262.159-117.604 262.159-128.796 254.01-137.873 243.961-137.873 233.915-137.873 225.764-128.796 225.764-117.604 225.764-106.412 233.915-97.3354 243.961-97.3354ZM244.352-85.2018C261.215-85.2018 274.889-99.8195 274.889-117.604 274.889-135.388 260.824-149.81 243.961-149.81 227.101-149.81 213.426-135.388 213.426-117.604 213.426-99.8195 227.492-85.2018 244.352-85.2018ZM277.535-147.623 291.168-147.623 291.168-106.488C303.641-117.398 312.832-131.111 318.349-147.623L330.06-147.693 330.06-87.2711 317.006-87.2711 316.992-116.874C312.905-110.055 307.901-104.447 302.981-99.6123 298.053-94.7702 294.05-90.6702 289.061-87.2711L277.535-87.2711ZM158.442-147.623 171.684-147.623 171.684-106.488C184.157-117.398 193.154-131.111 198.671-147.623L210.508-147.623 210.508-87.2711 197.265-87.2711 197.265-116.391C189.57-105.331 180.249-95.396 169.579-87.2711L158.442-87.2711ZM120.624-87.2711 133.465-87.2711C145.933-101.034 153.565-121.051 156.137-147.623L142.191-147.623C141.829-143.008 141.264-138.767 140.497-134.508L112.969-134.508C112.205-138.76 111.645-143.001 111.294-147.623L97.7514-147.623C100.194-120.891 108.378-100.208 120.624-87.2711ZM137.928-123.203C134.935-113.665 131.371-105.818 126.547-98.581 121.755-105.846 118.006-114.037 115.357-123.203ZM60.0478-97.3804C60.0478-97.3804 62.7397-97.2798 66.0516-97.2798 69.3629-97.2798 76.5955-97.8806 81.9112-103.085 87.2274-108.29 87.3282-114.195 87.3282-118.299 87.3282-122.403 85.9146-131.309 77.1862-135.312 68.4595-139.317 59.9475-137.816 59.9475-137.816Z" id="path4280" stroke-width="1.8007" fill="url(#radialGradient960)" fill-rule="evenodd"/></g></g></g></svg>